<svg width="1036" height="477" viewBox="0 0 1036 477" fill="none" xmlns="http://www.w3.org/2000/svg">
<path d="M289.998 199.627C289.749 207.189 289.625 213.98 289.625 220C289.625 226.02 289.749 232.811 289.998 240.373H273.809V226.791H259.188V240.373H243C243.249 234.701 243.373 227.91 243.373 220C243.373 212.09 243.249 205.299 243 199.627H259.188V213.209H273.809V199.627H289.998Z" fill="#0C0C0C"/>
<path d="M343.781 227.985C343.781 229.677 343.98 230.871 344.377 231.567C344.775 232.264 345.571 232.761 346.765 233.06L346.466 240.075C344.875 240.323 343.482 240.498 342.289 240.597C341.145 240.697 339.603 240.746 337.664 240.746C333.387 240.746 330.552 239.801 329.159 237.91C327.767 235.97 327.07 233.507 327.07 230.522V228.657C325.628 232.736 323.515 235.771 320.73 237.761C317.994 239.751 314.488 240.746 310.211 240.746C305.238 240.746 301.483 239.751 298.947 237.761C296.46 235.771 295.217 232.811 295.217 228.881C295.217 225.647 296.286 223.109 298.424 221.269C300.563 219.428 303.87 218.159 308.346 217.463C304.566 214.776 300.787 212.438 297.007 210.448C299.991 206.667 303.398 203.806 307.227 201.866C311.056 199.876 315.706 198.881 321.177 198.881C328.836 198.881 334.505 200.547 338.186 203.881C341.916 207.164 343.781 212.239 343.781 219.104V227.985ZM322.744 212.015C320.207 212.015 317.969 212.438 316.03 213.284C314.09 214.129 312.35 215.398 310.808 217.09C313.792 216.741 317.522 216.567 321.998 216.567C323.838 216.567 325.131 216.343 325.877 215.896C326.623 215.448 326.996 214.876 326.996 214.179C326.996 213.582 326.623 213.085 325.877 212.687C325.131 212.239 324.086 212.015 322.744 212.015ZM314.911 228.582C317.696 228.582 320.207 228.06 322.445 227.015C324.683 225.92 326.225 224.502 327.07 222.761V220.821C325.877 221.418 324.559 221.891 323.117 222.239C321.674 222.537 319.934 222.836 317.895 223.134L315.209 223.582C312.424 224.129 311.032 225.075 311.032 226.418C311.032 227.861 312.325 228.582 314.911 228.582Z" fill="#0C0C0C"/>
<path d="M412.741 229.776H414.979V249.851H400.879V241.716H377.306V250H363.207V229.776H365.669C367.359 229.527 368.628 228.905 369.473 227.91C370.368 226.915 371.065 225.274 371.562 222.985C371.91 221.194 372.084 216.915 372.084 210.149V199.627L412.741 199.701V229.776ZM384.766 227.313C384.667 227.861 384.468 228.682 384.169 229.776H398.492V212.239H385.81V214.478C385.761 217.363 385.686 219.652 385.587 221.343C385.487 222.985 385.214 224.975 384.766 227.313Z" fill="#0C0C0C"/>
<path d="M460.438 221.716H436.118C436.516 223.905 437.486 225.697 439.028 227.09C440.619 228.433 442.857 229.104 445.742 229.104C447.83 229.104 449.795 228.706 451.635 227.91C453.475 227.065 454.942 225.896 456.036 224.403C459.368 226.045 463.795 227.811 469.315 229.701C467.773 233.184 464.963 235.97 460.885 238.06C456.857 240.1 451.585 241.119 445.07 241.119C436.616 241.119 430.349 239.179 426.271 235.299C422.243 231.368 420.229 226.219 420.229 219.851C420.229 213.632 422.243 208.582 426.271 204.701C430.299 200.821 436.566 198.881 445.07 198.881C450.143 198.881 454.544 199.726 458.274 201.418C462.004 203.109 464.864 205.473 466.853 208.507C468.842 211.493 469.837 214.925 469.837 218.806C469.837 220.099 469.787 221.07 469.688 221.716H460.438ZM446.115 210.149C443.628 210.149 441.589 210.622 439.997 211.567C438.406 212.512 437.287 213.806 436.64 215.448H454.246C453.649 213.856 452.679 212.587 451.336 211.642C449.994 210.647 448.253 210.149 446.115 210.149Z" fill="#0C0C0C"/>
<path d="M521.729 199.627C521.48 206.841 521.356 213.358 521.356 219.179C521.356 224.9 521.48 231.418 521.729 238.731H506.436L507.257 212.91L495.843 238.731H475.03C475.328 232.164 475.478 225.647 475.478 219.179C475.478 212.612 475.328 206.095 475.03 199.627H489.726L488.98 226.119L500.394 199.627H521.729ZM497.633 197.836C495.296 197.836 493.133 197.313 491.143 196.269C489.204 195.224 487.662 193.731 486.518 191.791C485.374 189.851 484.802 187.587 484.802 185H492.188C492.188 186.94 492.685 188.383 493.68 189.328C494.724 190.224 496.042 190.672 497.633 190.672C499.225 190.672 500.518 190.224 501.513 189.328C502.557 188.383 503.079 186.94 503.079 185H510.465C510.465 187.587 509.893 189.851 508.749 191.791C507.605 193.731 506.038 195.224 504.049 196.269C502.109 197.313 499.971 197.836 497.633 197.836Z" fill="#0C0C0C"/>
<path d="M542.845 220C542.944 222.537 543.74 224.577 545.232 226.119C546.774 227.662 549.036 228.433 552.02 228.433C553.662 228.433 555.129 228.134 556.422 227.537C557.715 226.891 558.908 225.945 560.003 224.701C564.23 226.343 569.178 227.761 574.848 228.955C573.207 232.786 570.422 235.771 566.493 237.91C562.614 240.05 557.566 241.119 551.349 241.119C543.044 241.119 536.902 239.179 532.923 235.299C528.944 231.418 526.955 226.318 526.955 220C526.955 213.682 528.944 208.582 532.923 204.701C536.902 200.821 543.044 198.881 551.349 198.881C557.566 198.881 562.614 199.95 566.493 202.09C570.422 204.229 573.207 207.214 574.848 211.045C570.422 211.99 565.473 213.408 560.003 215.299C558.908 214.055 557.715 213.134 556.422 212.537C555.129 211.891 553.662 211.567 552.02 211.567C549.036 211.567 546.774 212.338 545.232 213.881C543.74 215.423 542.944 217.463 542.845 220Z" fill="#0C0C0C"/>
<path d="M625.727 213.657C618.267 213.458 612.846 213.333 609.464 213.284V240.373H593.649V213.284C590.317 213.333 584.921 213.458 577.461 213.657V199.627H625.727V213.657Z" fill="#0C0C0C"/>
<path d="M661.643 220.149C670.148 220.149 674.4 222.861 674.4 228.284C674.4 232.164 672.908 235.149 669.924 237.239C666.99 239.328 661.668 240.373 653.96 240.373H628.745C628.994 234.701 629.118 227.91 629.118 220C629.118 212.09 628.994 205.299 628.745 199.627H644.187V199.701H653.885C658.56 199.701 662.215 200.1 664.851 200.896C667.537 201.642 669.427 202.736 670.521 204.179C671.615 205.622 672.162 207.463 672.162 209.701C672.162 214.726 668.656 218.209 661.643 220.149ZM644.187 209.925V215.149H649.857C652.144 215.149 653.761 214.95 654.706 214.552C655.651 214.104 656.123 213.333 656.123 212.239C656.123 211.393 655.626 210.796 654.631 210.448C653.686 210.1 652.095 209.925 649.857 209.925H644.187ZM649.857 230.075C652.691 230.075 654.631 229.876 655.675 229.478C656.72 229.03 657.242 228.259 657.242 227.164C657.242 226.219 656.695 225.522 655.601 225.075C654.507 224.627 652.592 224.403 649.857 224.403H644.187V230.075H649.857Z" fill="#0C0C0C"/>
<path d="M726.294 199.627C726.045 206.841 725.921 213.358 725.921 219.179C725.921 224.9 726.045 231.418 726.294 238.731H711.001L711.822 212.91L700.408 238.731H679.595C679.893 232.164 680.043 225.647 680.043 219.179C680.043 212.612 679.893 206.095 679.595 199.627H694.291L693.545 226.119L704.959 199.627H726.294Z" fill="#0C0C0C"/>
<path d="M777.548 213.657C770.088 213.458 764.667 213.333 761.285 213.284V240.373H745.47V213.284C742.138 213.333 736.742 213.458 729.282 213.657V199.627H777.548V213.657Z" fill="#0C0C0C"/>
<path d="M816.314 221.716H791.995C792.392 223.905 793.362 225.697 794.904 227.09C796.495 228.433 798.733 229.104 801.618 229.104C803.707 229.104 805.671 228.706 807.511 227.91C809.351 227.065 810.818 225.896 811.913 224.403C815.245 226.045 819.671 227.811 825.191 229.701C823.649 233.184 820.84 235.97 816.761 238.06C812.733 240.1 807.461 241.119 800.946 241.119C792.492 241.119 786.226 239.179 782.147 235.299C778.119 231.368 776.105 226.219 776.105 219.851C776.105 213.632 778.119 208.582 782.147 204.701C786.176 200.821 792.442 198.881 800.946 198.881C806.019 198.881 810.421 199.726 814.151 201.418C817.88 203.109 820.74 205.473 822.729 208.507C824.719 211.493 825.713 214.925 825.713 218.806C825.713 220.099 825.664 221.07 825.564 221.716H816.314ZM801.991 210.149C799.504 210.149 797.465 210.622 795.874 211.567C794.282 212.512 793.163 213.806 792.517 215.448H810.122C809.525 213.856 808.556 212.587 807.213 211.642C805.87 210.647 804.129 210.149 801.991 210.149Z" fill="#0C0C0C"/>
<path d="M877.382 240.746H861.044V213.731H850.451L850.377 216.045C850.327 218.433 850.227 220.547 850.078 222.388C849.979 224.179 849.73 226.119 849.332 228.209C847.641 237.313 840.753 241.866 828.668 241.866V230C831.006 229.701 832.597 228.98 833.443 227.836C834.288 226.642 834.711 224.801 834.711 222.313V199.627L877.382 199.701V240.746Z" fill="#0C0C0C"/>
<path d="M909.245 208.731C916.655 208.731 921.827 210.199 924.761 213.134C927.696 216.02 929.163 220.05 929.163 225.224C929.163 230.05 927.696 233.781 924.761 236.418C921.877 239.005 916.705 240.299 909.245 240.299H899.323V240.373H883.359C883.607 234.701 883.732 227.91 883.732 220C883.732 212.09 883.607 205.299 883.359 199.627H899.323V208.731H909.245ZM904.769 228.433C908.3 228.433 910.762 228.159 912.154 227.612C913.547 227.065 914.243 225.995 914.243 224.403C914.243 222.811 913.522 221.741 912.079 221.194C910.637 220.597 908.2 220.299 904.769 220.299L899.323 220.373V228.433H904.769Z" fill="#0C0C0C"/>
<path d="M981.352 199.627C981.103 207.189 980.979 213.98 980.979 220C980.979 226.02 981.103 232.811 981.352 240.373H965.164V226.791H950.542V240.373H934.354C934.603 234.701 934.727 227.91 934.727 220C934.727 212.09 934.603 205.299 934.354 199.627H950.542V213.209H965.164V199.627H981.352Z" fill="#0C0C0C"/>
<path d="M1011.34 241.119C1002.83 241.119 996.567 239.179 992.539 235.299C988.56 231.368 986.571 226.219 986.571 219.851C986.571 213.632 988.56 208.582 992.539 204.701C996.567 200.821 1002.83 198.881 1011.34 198.881C1017.06 198.881 1021.83 199.826 1025.66 201.716C1029.54 203.557 1032.4 206.07 1034.24 209.254C1036.08 212.388 1037 215.92 1037 219.851C1037 226.269 1034.86 231.418 1030.58 235.299C1026.36 239.179 1019.94 241.119 1011.34 241.119ZM1011.64 228.433C1014.87 228.433 1017.28 227.662 1018.87 226.119C1020.46 224.577 1021.26 222.512 1021.26 219.925C1021.26 217.488 1020.46 215.498 1018.87 213.955C1017.28 212.363 1014.87 211.567 1011.64 211.567C1008.4 211.567 1006.04 212.338 1004.55 213.881C1003.06 215.423 1002.31 217.438 1002.31 219.925C1002.31 222.512 1003.06 224.577 1004.55 226.119C1006.04 227.662 1008.4 228.433 1011.64 228.433Z" fill="#0C0C0C"/>
<path d="M239.652 319.735C256.941 319.735 265.585 325.126 265.585 335.908C265.585 340.964 264.41 345.277 262.059 348.846C259.709 352.341 255.5 355.092 249.434 357.1C243.368 359.033 234.951 360 224.184 360H173C173.607 345.574 173.91 332.078 173.91 319.512C173.91 306.945 173.607 293.449 173 279.023H199.729V279.135H223.956C233.359 279.135 240.752 279.915 246.136 281.477C251.595 282.964 255.424 285.158 257.623 288.058C259.898 290.958 261.036 294.638 261.036 299.1C261.036 303.636 259.405 307.688 256.145 311.258C252.96 314.753 247.463 317.578 239.652 319.735ZM199.729 299.435V309.808H221.567C226.269 309.808 229.529 309.399 231.349 308.581C233.245 307.763 234.193 306.276 234.193 304.119C234.193 302.409 233.207 301.219 231.235 300.55C229.34 299.806 226.117 299.435 221.567 299.435H199.729ZM221.567 339.588C225.51 339.588 228.506 339.44 230.553 339.142C232.676 338.771 234.193 338.176 235.103 337.358C236.013 336.465 236.468 335.276 236.468 333.788C236.468 331.855 235.368 330.479 233.169 329.662C231.046 328.769 227.179 328.323 221.567 328.323H199.729V339.588H221.567Z" fill="url(#paint0_linear_579_211)"/>
<path d="M346.405 360C344.964 355.762 343.03 350.445 340.604 344.05H304.32L298.633 360H270.084L301.932 279.023H343.789L375.864 360H346.405ZM334.121 326.65C331.239 318.842 328.282 311.035 325.249 303.227L322.519 295.977C319.865 302.744 315.96 312.968 310.804 326.65H334.121Z" fill="url(#paint1_linear_579_211)"/>
<path d="M465.874 314.381C469.058 316.24 472.016 318.545 474.745 321.296C478.158 324.865 480.774 328.844 482.594 333.231C484.413 337.544 486.195 342.86 487.939 349.181C489.153 354.014 490.29 357.621 491.352 360H463.599C463.371 359.331 462.916 357.174 462.234 353.531C461.627 350.036 460.983 347.136 460.3 344.831C459.694 342.526 458.784 340.518 457.571 338.808C455.902 336.354 454.12 334.421 452.225 333.008C450.329 331.595 448.092 330.554 445.514 329.885C445.666 339.923 445.893 349.962 446.196 360H423.676C424.055 350.036 424.282 340.109 424.358 330.219C422.083 330.888 420.074 331.929 418.33 333.342C416.662 334.755 415.031 336.577 413.439 338.808C412.226 340.518 411.278 342.526 410.595 344.831C409.989 347.136 409.382 350.036 408.776 353.531C408.093 357.174 407.638 359.331 407.411 360H379.658C380.719 357.621 381.857 354.014 383.07 349.181C384.814 342.86 386.596 337.544 388.416 333.231C390.236 328.844 392.852 324.865 396.264 321.296C398.994 318.545 401.951 316.24 405.136 314.381L377.383 279.023H407.866C409.913 283.485 412.377 288.281 415.259 293.412C418.14 298.468 421.135 303.227 424.244 307.688C424.244 299.212 424.055 289.656 423.676 279.023H446.196C445.893 288.838 445.666 298.654 445.514 308.469C445.817 308.469 446.007 308.506 446.083 308.581C449.267 304.045 452.376 299.174 455.409 293.969C458.443 288.69 461.021 283.708 463.144 279.023H493.626L465.874 314.381Z" fill="url(#paint2_linear_579_211)"/>
<path d="M594.988 279.023C594.457 291.59 594.191 305.086 594.191 319.512C594.191 333.937 594.457 347.433 594.988 360H568.258V329.662H526.402V360H499.673C500.279 345.574 500.582 332.078 500.582 319.512C500.582 306.945 500.279 293.449 499.673 279.023H526.402V309.362H568.258V279.023H594.988Z" fill="url(#paint3_linear_579_211)"/>
<path d="M725.218 315.385C725.142 319.846 725.104 326.687 725.104 335.908C725.104 346.987 725.18 355.018 725.331 360H698.488L698.602 347.396C698.754 333.565 698.83 322.895 698.83 315.385C698.83 308.246 698.754 298.133 698.602 285.046L698.488 273H725.331C725.256 275.379 725.218 279.097 725.218 284.154V305.012V315.385ZM652.31 298.654C662.698 298.654 670.849 299.955 676.764 302.558C682.678 305.086 686.811 308.655 689.162 313.265C691.512 317.801 692.688 323.341 692.688 329.885C692.688 339.403 689.73 346.801 683.816 352.081C677.901 357.286 667.399 359.888 652.31 359.888H632.064V360H604.083C604.69 345.574 604.993 332.078 604.993 319.512C604.993 306.945 604.69 293.449 604.083 279.023H632.064V298.654H652.31ZM647.76 337.804C653.068 337.804 657.049 337.581 659.703 337.135C662.432 336.614 664.328 335.759 665.39 334.569C666.451 333.379 666.982 331.558 666.982 329.104C666.982 326.65 666.413 324.791 665.276 323.527C664.139 322.263 662.205 321.408 659.475 320.962C656.821 320.441 652.916 320.181 647.76 320.181H632.064V337.804H647.76Z" fill="url(#paint4_linear_579_211)"/>
<path d="M761.329 339.588C790.143 339.44 811.034 339.031 824 338.362C823.469 341.41 823.128 344.571 822.976 347.842C822.9 351.04 822.863 355.092 822.863 360H734.486C735.092 345.574 735.396 332.078 735.396 319.512C735.396 306.945 735.092 293.449 734.486 279.023H822.863V299.212H761.329V309.919C764.968 309.994 770.352 310.031 777.48 310.031C789.536 310.031 802.01 309.808 814.901 309.362V328.546C802.01 328.1 789.536 327.877 777.48 327.877C770.352 327.877 764.968 327.914 761.329 327.988V339.588Z" fill="url(#paint5_linear_579_211)"/>
<path d="M697.212 418.672C711.484 418.672 718.62 423.22 718.62 432.316C718.62 438.824 716.116 443.831 711.109 447.336C706.184 450.84 697.253 452.593 684.316 452.593H642C642.417 443.08 642.626 431.69 642.626 418.422C642.626 405.154 642.417 393.764 642 384.252H667.916V384.377H684.191C692.037 384.377 698.172 385.044 702.595 386.379C707.102 387.631 710.274 389.467 712.11 391.887C713.946 394.307 714.864 397.394 714.864 401.149C714.864 409.577 708.98 415.418 697.212 418.672ZM667.916 401.525V410.286H677.431C681.27 410.286 683.983 409.953 685.568 409.285C687.154 408.534 687.947 407.241 687.947 405.405C687.947 403.986 687.113 402.985 685.443 402.401C683.857 401.817 681.187 401.525 677.431 401.525H667.916ZM677.431 435.32C682.188 435.32 685.443 434.986 687.196 434.318C688.949 433.567 689.825 432.274 689.825 430.438C689.825 428.853 688.907 427.684 687.071 426.933C685.235 426.182 682.021 425.807 677.431 425.807H667.916V435.32H677.431Z" fill="#0C0C0C"/>
<path d="M793.568 421.301H752.754C753.422 424.972 755.049 427.976 757.637 430.313C760.308 432.566 764.064 433.692 768.904 433.692C772.41 433.692 775.707 433.025 778.795 431.69C781.883 430.271 784.345 428.31 786.182 425.807C791.774 428.561 799.202 431.523 808.467 434.694C805.879 440.535 801.163 445.208 794.319 448.712C787.559 452.134 778.712 453.844 767.778 453.844C753.589 453.844 743.072 450.59 736.228 444.081C729.467 437.489 726.087 428.853 726.087 418.172C726.087 407.741 729.467 399.272 736.228 392.763C742.989 386.254 753.505 383 767.778 383C776.291 383 783.678 384.419 789.937 387.256C796.197 390.093 800.997 394.056 804.335 399.146C807.674 404.153 809.343 409.911 809.343 416.419C809.343 418.589 809.26 420.216 809.093 421.301H793.568ZM769.53 401.9C765.357 401.9 761.935 402.693 759.264 404.278C756.593 405.864 754.716 408.033 753.63 410.787H783.177C782.175 408.117 780.548 405.989 778.294 404.403C776.041 402.735 773.119 401.9 769.53 401.9Z" fill="#0C0C0C"/>
<path d="M916.588 429.812V477H890.672V452.593H818.058C818.475 443.08 818.684 431.69 818.684 418.422C818.684 405.154 818.475 393.764 818.058 384.252H843.848V429.812H853.489V384.252H875.648V429.812H885.163V384.252H910.954C910.536 394.015 910.328 405.78 910.328 419.549V429.812H916.588Z" fill="#0C0C0C"/>
<path d="M1005 384.252C1004.58 396.351 1004.37 407.282 1004.37 417.045C1004.37 426.641 1004.58 437.573 1005 449.839H979.335L980.712 406.531L961.557 449.839H926.627C927.128 438.824 927.378 427.893 927.378 417.045C927.378 406.031 927.128 395.099 926.627 384.252H951.291L950.039 428.686L969.194 384.252H1005Z" fill="#0C0C0C"/>
<path d="M32.32 0C32.1333 4.50667 32.04 9.34667 32.04 14.52C32.04 19.6933 32.1333 24.5333 32.32 29.04H22.92V8.08H9.4V29.04H0C0.213333 23.8667 0.32 19.0267 0.32 14.52C0.32 10.0133 0.213333 5.17333 0 0H32.32Z" fill="#0C0C0C"/>
<path d="M56.6678 19.04H43.6278C43.8411 20.2133 44.3611 21.1733 45.1878 21.92C46.0411 22.64 47.2411 23 48.7878 23C49.9078 23 50.9611 22.7867 51.9478 22.36C52.9345 21.9067 53.7211 21.28 54.3078 20.48C56.0945 21.36 58.4678 22.3067 61.4278 23.32C60.6011 25.1867 59.0945 26.68 56.9078 27.8C54.7478 28.8933 51.9211 29.44 48.4278 29.44C43.8945 29.44 40.5345 28.4 38.3478 26.32C36.1878 24.2133 35.1078 21.4533 35.1078 18.04C35.1078 14.7067 36.1878 12 38.3478 9.92C40.5078 7.84 43.8678 6.8 48.4278 6.8C51.1478 6.8 53.5078 7.25333 55.5078 8.16C57.5078 9.06667 59.0411 10.3333 60.1078 11.96C61.1745 13.56 61.7078 15.4 61.7078 17.48C61.7078 18.1733 61.6811 18.6933 61.6278 19.04H56.6678ZM48.9878 12.84C47.6545 12.84 46.5611 13.0933 45.7078 13.6C44.8545 14.1067 44.2545 14.8 43.9078 15.68H53.3478C53.0278 14.8267 52.5078 14.1467 51.7878 13.64C51.0678 13.1067 50.1345 12.84 48.9878 12.84Z" fill="#0C0C0C"/>
<path d="M81.9722 6.8C83.7055 6.8 85.2655 7.29333 86.6522 8.28C88.0389 9.26667 89.1189 10.6133 89.8922 12.32C90.6655 14 91.0522 15.8533 91.0522 17.88C91.0522 19.88 90.6655 21.7733 89.8922 23.56C89.1189 25.32 88.0255 26.7467 86.6122 27.84C85.2255 28.9067 83.6389 29.44 81.8522 29.44C79.7722 29.44 77.9855 29.0133 76.4922 28.16C75.0255 27.28 73.9322 25.9333 73.2122 24.12C73.2122 25.64 73.2655 28.08 73.3722 31.44C73.4789 34.6933 73.5322 36.9867 73.5322 38.32H64.4922C64.6522 33.36 64.7322 28.1733 64.7322 22.76C64.7322 17.3467 64.6522 12.16 64.4922 7.2H72.1722L73.3322 12.2C74.0789 10.3333 75.1989 8.97333 76.6922 8.12C78.1855 7.24 79.9455 6.8 81.9722 6.8ZM77.6922 22.24C78.8922 22.24 79.8922 21.8667 80.6922 21.12C81.5189 20.3467 81.9322 19.3467 81.9322 18.12C81.9322 16.76 81.5589 15.6533 80.8122 14.8C80.0655 13.9467 79.0522 13.52 77.7722 13.52C76.3055 13.52 75.1989 13.88 74.4522 14.6C73.7055 15.2933 73.3322 16.4667 73.3322 18.12C73.3322 19.0533 73.5722 19.84 74.0522 20.48C74.5322 21.0933 75.1055 21.5467 75.7722 21.84C76.4389 22.1067 77.0789 22.24 77.6922 22.24Z" fill="#0C0C0C"/>
<path d="M115.027 19.04H101.987C102.201 20.2133 102.721 21.1733 103.547 21.92C104.401 22.64 105.601 23 107.147 23C108.267 23 109.321 22.7867 110.307 22.36C111.294 21.9067 112.081 21.28 112.667 20.48C114.454 21.36 116.827 22.3067 119.787 23.32C118.961 25.1867 117.454 26.68 115.267 27.8C113.107 28.8933 110.281 29.44 106.787 29.44C102.254 29.44 98.8939 28.4 96.7072 26.32C94.5472 24.2133 93.4672 21.4533 93.4672 18.04C93.4672 14.7067 94.5472 12 96.7072 9.92C98.8672 7.84 102.227 6.8 106.787 6.8C109.507 6.8 111.867 7.25333 113.867 8.16C115.867 9.06667 117.401 10.3333 118.467 11.96C119.534 13.56 120.067 15.4 120.067 17.48C120.067 18.1733 120.041 18.6933 119.987 19.04H115.027ZM107.347 12.84C106.014 12.84 104.921 13.0933 104.067 13.6C103.214 14.1067 102.614 14.8 102.267 15.68H111.707C111.387 14.8267 110.867 14.1467 110.147 13.64C109.427 13.1067 108.494 12.84 107.347 12.84Z" fill="#0C0C0C"/>
<path d="M147.132 14.72C143.132 14.6133 140.225 14.5467 138.412 14.52V29.04H129.932V14.52C128.145 14.5467 125.252 14.6133 121.252 14.72V7.2H147.132V14.72Z" fill="#0C0C0C"/>
<path d="M173.27 7.2C173.137 11.2533 173.07 14.8933 173.07 18.12C173.07 21.3467 173.137 24.9867 173.27 29.04H165.39V22.08H162.15C160.31 24.9867 158.923 27.3067 157.99 29.04H148.59C150.723 26.1333 152.523 23.6267 153.99 21.52C151.937 20.9867 150.483 20.12 149.63 18.92C148.777 17.72 148.35 16.24 148.35 14.48C148.35 12.2667 149.15 10.5067 150.75 9.2C152.35 7.89333 155.177 7.24 159.23 7.24H165.39V7.2H173.27ZM165.39 16.44V13H161.79C159.843 13 158.523 13.12 157.83 13.36C157.163 13.6 156.83 14.04 156.83 14.68C156.83 15.3467 157.177 15.8133 157.87 16.08C158.59 16.32 159.897 16.44 161.79 16.44H165.39Z" fill="#0C0C0C"/>
<path d="M185.004 29.04H176.484C176.618 25.9733 176.684 22.3333 176.684 18.12C176.684 13.88 176.618 10.24 176.484 7.2H198.964C198.938 8.13333 198.924 10 198.924 12.8V14.96H185.004V29.04Z" fill="#0C0C0C"/>
<path d="M225.587 7.2C225.454 11.0667 225.387 14.56 225.387 17.68C225.387 20.7467 225.454 24.24 225.587 28.16H217.387L217.827 14.32L211.707 28.16H200.547C200.707 24.64 200.787 21.1467 200.787 17.68C200.787 14.16 200.707 10.6667 200.547 7.2H208.427L208.027 21.4L214.147 7.2H225.587Z" fill="#0C0C0C"/>
<path d="M246.429 18.2C250.989 18.2 253.269 19.6533 253.269 22.56C253.269 24.64 252.469 26.24 250.869 27.36C249.296 28.48 246.442 29.04 242.309 29.04H228.789C228.922 26 228.989 22.36 228.989 18.12C228.989 13.88 228.922 10.24 228.789 7.2H237.069V7.24H242.269C244.776 7.24 246.736 7.45333 248.149 7.88C249.589 8.28 250.602 8.86667 251.189 9.64C251.776 10.4133 252.069 11.4 252.069 12.6C252.069 15.2933 250.189 17.16 246.429 18.2ZM237.069 12.72V15.52H240.109C241.336 15.52 242.202 15.4133 242.709 15.2C243.216 14.96 243.469 14.5467 243.469 13.96C243.469 13.5067 243.202 13.1867 242.669 13C242.162 12.8133 241.309 12.72 240.109 12.72H237.069ZM240.109 23.52C241.629 23.52 242.669 23.4133 243.229 23.2C243.789 22.96 244.069 22.5467 244.069 21.96C244.069 21.4533 243.776 21.08 243.189 20.84C242.602 20.6 241.576 20.48 240.109 20.48H237.069V23.52H240.109Z" fill="#0C0C0C"/>
<path d="M281.695 22.4C281.695 23.3067 281.801 23.9467 282.015 24.32C282.228 24.6933 282.655 24.96 283.295 25.12L283.135 28.88C282.281 29.0133 281.535 29.1067 280.895 29.16C280.281 29.2133 279.455 29.24 278.415 29.24C276.121 29.24 274.601 28.7333 273.855 27.72C273.108 26.68 272.735 25.36 272.735 23.76V22.76C271.961 24.9467 270.828 26.5733 269.335 27.64C267.868 28.7067 265.988 29.24 263.695 29.24C261.028 29.24 259.015 28.7067 257.655 27.64C256.321 26.5733 255.655 24.9867 255.655 22.88C255.655 21.1467 256.228 19.7867 257.375 18.8C258.521 17.8133 260.295 17.1333 262.695 16.76C260.668 15.32 258.641 14.0667 256.615 13C258.215 10.9733 260.041 9.44 262.095 8.4C264.148 7.33333 266.641 6.8 269.575 6.8C273.681 6.8 276.721 7.69333 278.695 9.48C280.695 11.24 281.695 13.96 281.695 17.64V22.4ZM270.415 13.84C269.055 13.84 267.855 14.0667 266.815 14.52C265.775 14.9733 264.841 15.6533 264.015 16.56C265.615 16.3733 267.615 16.28 270.015 16.28C271.001 16.28 271.695 16.16 272.095 15.92C272.495 15.68 272.695 15.3733 272.695 15C272.695 14.68 272.495 14.4133 272.095 14.2C271.695 13.96 271.135 13.84 270.415 13.84ZM266.215 22.72C267.708 22.72 269.055 22.44 270.255 21.88C271.455 21.2933 272.281 20.5333 272.735 19.6V18.56C272.095 18.88 271.388 19.1333 270.615 19.32C269.841 19.48 268.908 19.64 267.815 19.8L266.375 20.04C264.881 20.3333 264.135 20.84 264.135 21.56C264.135 22.3333 264.828 22.72 266.215 22.72Z" fill="#0C0C0C"/>
<path d="M306.863 19.04H293.823C294.036 20.2133 294.556 21.1733 295.383 21.92C296.236 22.64 297.436 23 298.983 23C300.103 23 301.156 22.7867 302.143 22.36C303.13 21.9067 303.916 21.28 304.503 20.48C306.29 21.36 308.663 22.3067 311.623 23.32C310.796 25.1867 309.29 26.68 307.103 27.8C304.943 28.8933 302.116 29.44 298.623 29.44C294.09 29.44 290.73 28.4 288.543 26.32C286.383 24.2133 285.303 21.4533 285.303 18.04C285.303 14.7067 286.383 12 288.543 9.92C290.703 7.84 294.063 6.8 298.623 6.8C301.343 6.8 303.703 7.25333 305.703 8.16C307.703 9.06667 309.236 10.3333 310.303 11.96C311.37 13.56 311.903 15.4 311.903 17.48C311.903 18.1733 311.876 18.6933 311.823 19.04H306.863ZM299.183 12.84C297.85 12.84 296.756 13.0933 295.903 13.6C295.05 14.1067 294.45 14.8 294.103 15.68H303.543C303.223 14.8267 302.703 14.1467 301.983 13.64C301.263 13.1067 300.33 12.84 299.183 12.84Z" fill="#0C0C0C"/>
<path d="M345.207 7.2L346.728 29.04H338.967L338.487 13.4L335.447 29.04H325.967L322.887 13.6L322.447 29.04H314.688L316.207 7.2H328.047L330.647 21.48L332.967 7.2H345.207Z" fill="#0C0C0C"/>
<path d="M82.2246 111.778C103.552 111.778 114.216 118.502 114.216 131.95C114.216 138.257 112.766 143.636 109.867 148.088C106.967 152.447 101.775 155.879 94.2917 158.383C86.8082 160.794 76.4249 162 63.1417 162H0C0.748346 144.007 1.12252 127.174 1.12252 111.5C1.12252 95.826 0.748346 78.9927 0 61H32.974V61.1391H62.8611C74.4605 61.1391 83.581 62.1129 90.2225 64.0606C96.9576 65.9155 101.682 68.6515 104.394 72.2686C107.201 75.8857 108.604 80.4766 108.604 86.0413C108.604 91.6988 106.593 96.7534 102.57 101.205C98.6414 105.564 91.8595 109.089 82.2246 111.778ZM32.974 86.4587V99.3967H59.9145C65.7142 99.3967 69.7365 98.8866 71.9816 97.8664C74.3202 96.8462 75.4895 94.9913 75.4895 92.3016C75.4895 90.1685 74.2734 88.6846 71.8413 87.8499C69.5027 86.9224 65.5271 86.4587 59.9145 86.4587H32.974ZM59.9145 136.541C64.7788 136.541 68.4737 136.356 70.9994 135.985C73.6186 135.521 75.4895 134.779 76.612 133.759C77.7345 132.646 78.2958 131.162 78.2958 129.307C78.2958 126.896 76.9394 125.18 74.2266 124.16C71.6074 123.047 66.8367 122.49 59.9145 122.49H32.974V136.541H59.9145Z" fill="url(#paint6_linear_579_211)"/>
<path d="M242.963 61C242.308 76.674 241.981 93.5073 241.981 111.5C241.981 129.493 242.308 146.326 242.963 162H209.989V124.16H158.353V162H125.379C126.127 144.007 126.502 127.174 126.502 111.5C126.502 95.826 126.127 78.9927 125.379 61H158.353V98.8402H209.989V61H242.963Z" fill="url(#paint7_linear_579_211)"/>
<path d="M288.561 61.1391L286.176 139.185L320.272 61.1391H371.908C371.253 76.8131 370.926 93.6001 370.926 111.5C370.926 129.493 371.253 146.326 371.908 162H335.847L338.373 86.0413L304.417 162H254.184C254.932 144.007 255.306 127.174 255.306 111.5C255.306 95.9187 254.932 79.1318 254.184 61.1391H288.561Z" fill="url(#paint8_linear_579_211)"/>
<path d="M514.32 61L525.265 162H488.923L486.678 89.9366L472.647 162H435.884L421.572 90.4931L419.467 162H383.126L394.07 61H441.777L453.985 126.803L464.649 61H514.32Z" fill="url(#paint9_linear_579_211)"/>
<path d="M624.997 162C623.22 156.714 620.834 150.082 617.841 142.106H573.08L566.065 162H530.846L570.134 61H621.77L661.339 162H624.997ZM609.843 120.404C606.288 110.665 602.64 100.927 598.898 91.1887L595.531 82.146C592.257 90.5859 587.439 103.338 581.078 120.404H609.843Z" fill="url(#paint10_linear_579_211)"/>
<path d="M786.41 61C785.755 76.674 785.427 93.5073 785.427 111.5C785.427 129.493 785.755 146.326 786.41 162H753.435V124.16H701.8V162H668.826C669.574 144.007 669.948 127.174 669.948 111.5C669.948 95.826 669.574 78.9927 668.826 61H701.8V98.8402H753.435V61H786.41Z" fill="url(#paint11_linear_579_211)"/>
<path d="M832.007 61.1391L829.622 139.185L863.719 61.1391H915.355C914.7 76.8131 914.372 93.6001 914.372 111.5C914.372 129.493 914.7 146.326 915.355 162H879.294L881.819 86.0413L847.863 162H797.63C798.379 144.007 798.753 127.174 798.753 111.5C798.753 95.9187 798.379 79.1318 797.63 61.1391H832.007Z" fill="url(#paint12_linear_579_211)"/>
<path d="M959.686 136.541C995.233 136.356 1021 135.846 1037 135.011C1036.35 138.814 1035.92 142.755 1035.74 146.836C1035.64 150.824 1035.6 155.879 1035.6 162H926.572C927.32 144.007 927.695 127.174 927.695 111.5C927.695 95.826 927.32 78.9927 926.572 61H1035.6V86.1804H959.686V99.5358C964.177 99.6286 970.818 99.6749 979.611 99.6749C994.485 99.6749 1009.87 99.3967 1025.77 98.8402V122.769C1009.87 122.212 994.485 121.934 979.611 121.934C970.818 121.934 964.177 121.98 959.686 122.073V136.541Z" fill="url(#paint13_linear_579_211)"/>
<defs>
<linearGradient id="paint0_linear_579_211" x1="173" y1="316.5" x2="824" y2="316.5" gradientUnits="userSpaceOnUse">
<stop stop-color="#FF00E5"/>
<stop offset="1" stop-color="#0094FF"/>
</linearGradient>
<linearGradient id="paint1_linear_579_211" x1="173" y1="316.5" x2="824" y2="316.5" gradientUnits="userSpaceOnUse">
<stop stop-color="#FF00E5"/>
<stop offset="1" stop-color="#0094FF"/>
</linearGradient>
<linearGradient id="paint2_linear_579_211" x1="173" y1="316.5" x2="824" y2="316.5" gradientUnits="userSpaceOnUse">
<stop stop-color="#FF00E5"/>
<stop offset="1" stop-color="#0094FF"/>
</linearGradient>
<linearGradient id="paint3_linear_579_211" x1="173" y1="316.5" x2="824" y2="316.5" gradientUnits="userSpaceOnUse">
<stop stop-color="#FF00E5"/>
<stop offset="1" stop-color="#0094FF"/>
</linearGradient>
<linearGradient id="paint4_linear_579_211" x1="173" y1="316.5" x2="824" y2="316.5" gradientUnits="userSpaceOnUse">
<stop stop-color="#FF00E5"/>
<stop offset="1" stop-color="#0094FF"/>
</linearGradient>
<linearGradient id="paint5_linear_579_211" x1="173" y1="316.5" x2="824" y2="316.5" gradientUnits="userSpaceOnUse">
<stop stop-color="#FF00E5"/>
<stop offset="1" stop-color="#0094FF"/>
</linearGradient>
<linearGradient id="paint6_linear_579_211" x1="0" y1="111.5" x2="1037" y2="111.5" gradientUnits="userSpaceOnUse">
<stop stop-color="#FF00E5"/>
<stop offset="1" stop-color="#0094FF"/>
</linearGradient>
<linearGradient id="paint7_linear_579_211" x1="0" y1="111.5" x2="1037" y2="111.5" gradientUnits="userSpaceOnUse">
<stop stop-color="#FF00E5"/>
<stop offset="1" stop-color="#0094FF"/>
</linearGradient>
<linearGradient id="paint8_linear_579_211" x1="0" y1="111.5" x2="1037" y2="111.5" gradientUnits="userSpaceOnUse">
<stop stop-color="#FF00E5"/>
<stop offset="1" stop-color="#0094FF"/>
</linearGradient>
<linearGradient id="paint9_linear_579_211" x1="0" y1="111.5" x2="1037" y2="111.5" gradientUnits="userSpaceOnUse">
<stop stop-color="#FF00E5"/>
<stop offset="1" stop-color="#0094FF"/>
</linearGradient>
<linearGradient id="paint10_linear_579_211" x1="0" y1="111.5" x2="1037" y2="111.5" gradientUnits="userSpaceOnUse">
<stop stop-color="#FF00E5"/>
<stop offset="1" stop-color="#0094FF"/>
</linearGradient>
<linearGradient id="paint11_linear_579_211" x1="0" y1="111.5" x2="1037" y2="111.5" gradientUnits="userSpaceOnUse">
<stop stop-color="#FF00E5"/>
<stop offset="1" stop-color="#0094FF"/>
</linearGradient>
<linearGradient id="paint12_linear_579_211" x1="0" y1="111.5" x2="1037" y2="111.5" gradientUnits="userSpaceOnUse">
<stop stop-color="#FF00E5"/>
<stop offset="1" stop-color="#0094FF"/>
</linearGradient>
<linearGradient id="paint13_linear_579_211" x1="0" y1="111.5" x2="1037" y2="111.5" gradientUnits="userSpaceOnUse">
<stop stop-color="#FF00E5"/>
<stop offset="1" stop-color="#0094FF"/>
</linearGradient>
</defs>
</svg>
