<svg width="1715" height="944" viewBox="0 0 1715 944" fill="none" xmlns="http://www.w3.org/2000/svg">
<path d="M115.004 267C78.706 267 51.9639 259.264 34.7784 243.793C17.5928 228.321 9 206.242 9 177.555C9 148.707 17.5928 125.902 34.7784 109.141C51.9639 92.3805 78.706 84 115.004 84C165.758 84 199.728 101.486 216.913 136.458C202.458 141.454 185.514 148.948 166.079 158.941C161.422 149.915 154.033 143.227 143.915 138.876C133.957 134.524 123.758 132.349 113.318 132.349C97.8992 132.349 86.4154 136.458 78.8666 144.678C71.3178 152.736 67.5434 162.728 67.5434 174.654C67.5434 187.547 71.5587 198.103 79.5893 206.322C87.7806 214.38 100.228 218.41 116.932 218.41C130.263 218.41 140.863 216.234 148.733 211.882C156.603 207.37 162.385 200.279 166.079 190.609C179.25 197.7 196.114 205.678 216.672 214.542C208.642 234.042 195.231 247.66 176.439 255.396C157.647 263.132 137.169 267 115.004 267Z" fill="white"/>
<path d="M414.072 165.709C420.818 169.738 427.082 174.734 432.864 180.697C440.091 188.433 445.632 197.055 449.487 206.564C453.342 215.911 457.116 227.435 460.81 241.133C463.38 251.609 465.789 259.425 468.038 264.583H409.254C408.772 263.132 407.808 258.458 406.362 250.561C405.078 242.987 403.712 236.701 402.267 231.705C400.982 226.709 399.055 222.358 396.485 218.651C392.951 213.333 389.177 209.143 385.162 206.081C381.146 203.018 376.408 200.762 370.947 199.312C371.269 221.069 371.75 242.826 372.393 264.583H324.691C325.494 242.987 325.976 221.472 326.136 200.037C321.318 201.487 317.062 203.744 313.368 206.806C309.834 209.868 306.381 213.816 303.008 218.651C300.438 222.358 298.431 226.709 296.985 231.705C295.7 236.701 294.415 242.987 293.13 250.561C291.685 258.458 290.721 263.132 290.239 264.583H231.455C233.704 259.425 236.113 251.609 238.683 241.133C242.377 227.435 246.151 215.911 250.006 206.564C253.861 197.055 259.402 188.433 266.629 180.697C272.411 174.734 278.675 169.738 285.421 165.709L226.637 89.0766H291.203C295.54 98.7464 300.76 109.141 306.863 120.262C312.966 131.221 319.31 141.535 325.895 151.205C325.895 132.832 325.494 112.123 324.691 89.0766H372.393C371.75 110.35 371.269 131.624 370.947 152.897C371.59 152.897 371.991 152.978 372.152 153.139C378.898 143.308 385.483 132.752 391.907 121.47C398.332 110.028 403.793 99.2299 408.29 89.0766H472.856L414.072 165.709Z" fill="white"/>
<path d="M637.683 264.583C634.631 255.396 630.535 243.873 625.396 230.013H548.543L536.497 264.583H476.026L543.483 89.0766H632.141L700.081 264.583H637.683ZM611.663 192.301C605.56 175.379 599.296 158.457 592.872 141.535L587.09 125.822C581.468 140.487 573.197 162.647 562.275 192.301H611.663Z" fill="white"/>
<path d="M919.886 139.843C894.669 139.037 870.176 138.553 846.405 138.392V264.583H786.175V138.392C762.244 138.553 737.831 139.037 712.936 139.843V89.0766H919.886V139.843Z" fill="white"/>
<path d="M1091.29 264.583C1088.24 255.396 1084.14 243.873 1079 230.013H1002.15L990.102 264.583H929.632L997.089 89.0766H1085.75L1153.69 264.583H1091.29ZM1065.27 192.301C1059.17 175.379 1052.9 158.457 1046.48 141.535L1040.7 125.822C1035.07 140.487 1026.8 162.647 1015.88 192.301H1065.27Z" fill="white"/>
<path d="M1360 89.0766C1358.88 116.313 1358.31 145.564 1358.31 176.83C1358.31 208.095 1358.88 237.346 1360 264.583H1303.14V208.498H1267.73C1252.47 232.672 1241.31 251.367 1234.24 264.583H1168.71L1207.74 210.19C1208.54 208.74 1209.91 206.725 1211.83 204.147C1195.29 199.795 1183.57 192.785 1176.66 183.115C1169.91 173.445 1166.54 161.6 1166.54 147.579C1166.54 129.69 1172.97 115.507 1185.82 105.032C1198.66 94.5561 1221.31 89.3184 1253.75 89.3184H1303.14V89.0766H1360ZM1303.14 163.292V135.733H1270.62C1256.81 135.733 1246.37 136.136 1239.3 136.942C1232.23 137.748 1227.41 139.118 1224.84 141.052C1222.27 142.985 1220.99 145.725 1220.99 149.271C1220.99 152.978 1222.35 155.798 1225.09 157.732C1227.82 159.666 1232.63 161.116 1239.54 162.083C1246.61 162.889 1256.97 163.292 1270.62 163.292H1303.14Z" fill="white"/>
<path d="M155.03 341.88C137.237 341.313 119.953 340.973 103.18 340.86V429.6H60.68V340.86C43.7933 340.973 26.5667 341.313 9 341.88V306.18H155.03V341.88Z" fill="white"/>
<path d="M210.357 306.35L207.467 401.72L248.777 306.35H311.337C310.544 325.503 310.147 346.017 310.147 367.89C310.147 389.877 310.544 410.447 311.337 429.6H267.647L270.707 336.78L229.567 429.6H168.707C169.614 407.613 170.067 387.043 170.067 367.89C170.067 348.85 169.614 328.337 168.707 306.35H210.357Z" fill="white"/>
<path d="M462.288 306.18C461.494 325.333 461.098 345.903 461.098 367.89C461.098 389.877 461.494 410.447 462.288 429.6H422.338V340.52H364.878V429.6H324.928C325.834 407.613 326.288 387.043 326.288 367.89C326.288 348.737 325.834 328.167 324.928 306.18H462.288Z" fill="white"/>
<path d="M551.486 431.3C525.533 431.3 506.436 425.69 494.196 414.47C481.956 403.137 475.836 387.27 475.836 366.87C475.836 346.697 481.899 330.943 494.026 319.61C506.266 308.277 525.419 302.61 551.486 302.61C577.666 302.61 596.819 308.277 608.946 319.61C621.186 330.943 627.306 346.697 627.306 366.87C627.306 387.383 621.243 403.25 609.116 414.47C596.989 425.69 577.779 431.3 551.486 431.3ZM551.486 396.62C564.066 396.62 573.133 394.24 578.686 389.48C584.239 384.607 587.016 377.07 587.016 366.87C587.016 356.897 584.239 349.473 578.686 344.6C573.133 339.727 564.066 337.29 551.486 337.29C539.019 337.29 530.009 339.727 524.456 344.6C518.903 349.473 516.126 356.897 516.126 366.87C516.126 376.957 518.903 384.437 524.456 389.31C530.009 394.183 539.019 396.62 551.486 396.62Z" fill="white"/>
<path d="M682.336 429.6H640.855C641.762 407.5 642.215 386.93 642.215 367.89C642.215 348.737 641.762 328.167 640.855 306.18H761.216C760.989 315.473 760.875 322.557 760.875 327.43C760.875 333.437 760.932 337.97 761.045 341.03H682.336V429.6Z" fill="white"/>
<path d="M852.01 306.35C874.563 306.35 890.26 310.373 899.1 318.42C907.94 326.353 912.36 337.573 912.36 352.08C912.36 362.053 910.603 370.553 907.09 377.58C903.577 384.493 897.4 389.933 888.56 393.9C879.72 397.753 867.537 399.68 852.01 399.68H816.65V429.6H774.83C775.737 407.613 776.19 387.043 776.19 367.89C776.19 348.737 775.737 328.167 774.83 306.18H816.65V306.35H852.01ZM840.11 366.87C849.517 366.87 856.543 366.53 861.19 365.85C865.95 365.057 869.237 363.697 871.05 361.77C872.977 359.843 873.94 357.01 873.94 353.27C873.94 349.53 873.033 346.753 871.22 344.94C869.52 343.013 866.29 341.71 861.53 341.03C856.883 340.35 849.743 340.01 840.11 340.01H816.65V366.87H840.11Z" fill="white"/>
<path d="M1033.17 429.6C1031.02 423.14 1028.13 415.037 1024.5 405.29H970.274L961.774 429.6H919.104L966.704 306.18H1029.26L1077.2 429.6H1033.17ZM1014.81 378.77C1010.51 366.87 1006.09 354.97 1001.55 343.07L997.474 332.02C993.508 342.333 987.671 357.917 979.964 378.77H1014.81Z" fill="white"/>
<path d="M1237.75 363.47C1237.75 393.163 1218.99 410.163 1181.48 414.47L1181.82 429.6H1141.7L1141.87 414.3C1122.83 412.033 1108.77 406.537 1099.71 397.81C1090.75 389.083 1086.28 377.637 1086.28 363.47C1086.28 349.417 1090.75 338.027 1099.71 329.3C1108.66 320.46 1122.71 314.907 1141.87 312.64L1141.7 297H1181.82C1181.7 300.287 1181.65 305.5 1181.65 312.64C1200.91 314.907 1215.08 320.46 1224.15 329.3C1233.21 338.027 1237.75 349.417 1237.75 363.47ZM1181.48 380.64C1187.03 379.28 1191.05 377.183 1193.55 374.35C1196.15 371.517 1197.46 367.89 1197.46 363.47C1197.46 354.857 1192.24 349.247 1181.82 346.64L1181.65 361.6C1181.53 365.793 1181.48 372.14 1181.48 380.64ZM1126.57 363.47C1126.57 367.777 1127.81 371.347 1130.31 374.18C1132.8 377.013 1136.77 379.11 1142.21 380.47V361.6V346.64C1131.78 349.247 1126.57 354.857 1126.57 363.47Z" fill="white"/>
<path d="M1292.94 306.35L1290.05 401.72L1331.36 306.35H1393.92C1393.13 325.503 1392.73 346.017 1392.73 367.89C1392.73 389.877 1393.13 410.447 1393.92 429.6H1350.23L1353.29 336.78L1312.15 429.6H1251.29C1252.2 407.613 1252.65 387.043 1252.65 367.89C1252.65 348.85 1252.2 328.337 1251.29 306.35H1292.94Z" fill="white"/>
<path d="M1517 370.61C1523.68 376.05 1528.78 382.113 1532.3 388.8C1535.92 395.373 1539.44 403.477 1542.84 413.11C1545.67 420.93 1547.94 426.427 1549.64 429.6H1499.66C1498.98 427.673 1498.07 424.33 1496.94 419.57C1495.8 414.357 1494.56 409.993 1493.2 406.48C1491.95 402.967 1490.14 399.907 1487.76 397.3C1483.9 393.22 1479.09 390.613 1473.31 389.48C1467.64 388.233 1459.82 387.61 1449.85 387.61V429.6H1407.52C1408.42 407.613 1408.88 387.043 1408.88 367.89C1408.88 348.737 1408.42 328.167 1407.52 306.18H1449.85V350.55C1450.98 350.663 1452.68 350.72 1454.95 350.72C1472.63 333.267 1485.77 318.42 1494.39 306.18H1549.47L1496.6 358.88C1504.08 361.827 1510.88 365.737 1517 370.61Z" fill="white"/>
<path d="M1670.51 429.6C1668.35 423.14 1665.46 415.037 1661.84 405.29H1607.61L1599.11 429.6H1556.44L1604.04 306.18H1666.6L1714.54 429.6H1670.51ZM1652.15 378.77C1647.84 366.87 1643.42 354.97 1638.89 343.07L1634.81 332.02C1630.84 342.333 1625 357.917 1617.3 378.77H1652.15Z" fill="white"/>
<path d="M256.293 694.898C271.397 707.21 282.917 720.933 290.853 736.066C299.045 750.943 306.981 769.283 314.661 791.085C321.061 808.783 326.18 821.223 330.02 828.405H217.126C215.59 824.045 213.542 816.478 210.982 805.705C208.422 793.906 205.606 784.031 202.534 776.08C199.718 768.128 195.622 761.203 190.246 755.304C181.542 746.07 170.662 740.17 157.606 737.605C144.806 734.784 127.143 733.373 104.615 733.373V828.405H9C11.048 778.645 12.072 732.091 12.072 688.742C12.072 645.394 11.048 598.84 9 549.08H104.615V649.498C107.175 649.755 111.015 649.883 116.135 649.883C156.07 610.383 185.766 576.781 205.222 549.08H329.636L210.214 668.351C227.11 675.02 242.469 683.869 256.293 694.898Z" fill="url(#paint0_linear_679_454)"/>
<path d="M535.08 549.464C586.024 549.464 621.479 558.57 641.447 576.781C661.415 594.736 671.399 620.129 671.399 652.961C671.399 675.533 667.431 694.77 659.495 710.673C651.559 726.319 637.607 738.631 617.639 747.609C597.671 756.33 570.152 760.69 535.08 760.69H455.209V828.405H360.746C362.794 778.645 363.818 732.091 363.818 688.742C363.818 645.394 362.794 598.84 360.746 549.08H455.209V549.464H535.08ZM508.2 686.434C529.448 686.434 545.32 685.665 555.816 684.126C566.568 682.33 573.992 679.252 578.088 674.892C582.44 670.531 584.616 664.119 584.616 655.654C584.616 647.19 582.568 640.906 578.472 636.802C574.632 632.441 567.336 629.492 556.584 627.953C546.088 626.414 529.96 625.644 508.2 625.644H455.209V686.434H508.2Z" fill="url(#paint1_linear_679_454)"/>
<path d="M991.909 549.08C990.885 551.901 989.605 555.107 988.069 558.698C986.533 562.033 984.997 565.88 983.461 570.241C969.381 605.124 956.326 636.545 944.294 664.503C932.518 692.205 918.438 723.754 902.054 759.151C887.718 789.931 866.726 814.554 839.079 833.022C811.687 851.747 777.127 860.724 735.4 859.954C730.024 837.639 725.672 820.839 722.344 809.553C719.272 798.01 715.048 786.211 709.672 774.156C724.776 777.491 738.728 779.158 751.528 779.158C764.072 779.158 775.335 777.491 785.319 774.156C766.888 726.704 733.992 651.679 686.632 549.08H782.247L843.303 692.975L854.055 667.197C880.678 603.842 895.654 564.47 898.982 549.08H991.909Z" fill="url(#paint2_linear_679_454)"/>
<path d="M1341.97 629.876C1301.77 628.594 1262.74 627.824 1224.85 627.568V828.405H1128.85V627.568C1090.7 627.824 1051.79 628.594 1012.11 629.876V549.08H1341.97V629.876Z" fill="url(#paint3_linear_679_454)"/>
<path d="M1543.74 832.253C1485.11 832.253 1441.98 819.556 1414.33 794.163C1386.68 768.513 1372.86 732.604 1372.86 686.434C1372.86 640.777 1386.56 605.124 1413.95 579.475C1441.6 553.825 1484.86 541 1543.74 541C1602.87 541 1646.14 553.825 1673.53 579.475C1701.18 605.124 1715 640.777 1715 686.434C1715 732.86 1701.3 768.77 1673.91 794.163C1646.52 819.556 1603.13 832.253 1543.74 832.253ZM1543.74 753.765C1572.15 753.765 1592.63 748.378 1605.18 737.605C1617.72 726.576 1623.99 709.519 1623.99 686.434C1623.99 663.862 1617.72 647.062 1605.18 636.032C1592.63 625.003 1572.15 619.488 1543.74 619.488C1515.58 619.488 1495.23 625.003 1482.68 636.032C1470.14 647.062 1463.87 663.862 1463.87 686.434C1463.87 709.262 1470.14 726.191 1482.68 737.22C1495.23 748.25 1515.58 753.765 1543.74 753.765Z" fill="url(#paint4_linear_679_454)"/>
<g opacity="0.2">
<path d="M27.7986 461.088C37.7685 461.088 45.2167 463.415 50.143 468.067C55.128 472.661 57.6204 478.845 57.6204 486.618C57.6204 494.392 55.128 500.399 50.143 504.64C45.2167 508.88 37.7685 511 27.7986 511C21.7579 511 16.1572 509.969 10.9963 507.908C5.894 505.788 2.2579 502.048 0.0879702 496.689C6.30453 493.98 10.9083 491.801 13.8993 490.152C14.9549 492.39 16.5384 494.068 18.6497 495.187C20.8196 496.306 23.7226 496.866 27.3587 496.866C34.3377 496.866 38.8535 495.069 40.9061 491.477H17.9459V480.346H40.4663C38.355 476.931 34.279 475.223 28.2384 475.223C25.482 475.223 22.6963 475.753 19.8812 476.813C17.1249 477.873 15.1309 479.463 13.8993 481.583C8.50378 478.815 3.87069 476.754 0 475.399C4.69174 465.859 13.9579 461.088 27.7986 461.088Z" fill="white"/>
<path d="M250.877 478.491C242.08 478.256 235.688 478.108 231.7 478.049V510.117H213.05V478.049C209.121 478.108 202.757 478.256 193.96 478.491V461.883H250.877V478.491Z" fill="white"/>
<path d="M416.477 511C406.449 511 399.059 508.703 394.309 504.11C389.617 499.457 387.271 493.362 387.271 485.823C387.271 478.462 389.617 472.484 394.309 467.89C399.059 463.297 406.449 461 416.477 461C423.222 461 428.852 462.119 433.368 464.357C437.942 466.536 441.314 469.51 443.484 473.279C445.654 476.989 446.739 481.171 446.739 485.823C446.739 493.42 444.217 499.516 439.174 504.11C434.189 508.703 426.623 511 416.477 511ZM416.829 495.982C420.641 495.982 423.486 495.069 425.362 493.244C427.239 491.418 428.177 488.974 428.177 485.912C428.177 483.026 427.239 480.67 425.362 478.845C423.486 476.96 420.641 476.018 416.829 476.018C413.017 476.018 410.232 476.931 408.472 478.756C406.713 480.582 405.833 482.967 405.833 485.912C405.833 488.974 406.713 491.418 408.472 493.244C410.232 495.069 413.017 495.982 416.829 495.982Z" fill="white"/>
</g>
<g opacity="0.2">
<path d="M1295.8 461.088C1305.77 461.088 1313.22 463.415 1318.14 468.067C1323.13 472.661 1325.62 478.845 1325.62 486.618C1325.62 494.392 1323.13 500.399 1318.14 504.64C1313.22 508.88 1305.77 511 1295.8 511C1289.76 511 1284.16 509.969 1279 507.908C1273.89 505.788 1270.26 502.048 1268.09 496.689C1274.3 493.98 1278.91 491.801 1281.9 490.152C1282.95 492.39 1284.54 494.068 1286.65 495.187C1288.82 496.306 1291.72 496.866 1295.36 496.866C1302.34 496.866 1306.85 495.069 1308.91 491.477H1285.95V480.346H1308.47C1306.35 476.931 1302.28 475.223 1296.24 475.223C1293.48 475.223 1290.7 475.753 1287.88 476.813C1285.12 477.873 1283.13 479.463 1281.9 481.583C1276.5 478.815 1271.87 476.754 1268 475.399C1272.69 465.859 1281.96 461.088 1295.8 461.088Z" fill="white"/>
<path d="M1518.88 478.491C1510.08 478.256 1503.69 478.108 1499.7 478.049V510.117H1481.05V478.049C1477.12 478.108 1470.76 478.256 1461.96 478.491V461.883H1518.88V478.491Z" fill="white"/>
<path d="M1684.48 511C1674.45 511 1667.06 508.703 1662.31 504.11C1657.62 499.457 1655.27 493.362 1655.27 485.823C1655.27 478.462 1657.62 472.484 1662.31 467.89C1667.06 463.297 1674.45 461 1684.48 461C1691.22 461 1696.85 462.119 1701.37 464.357C1705.94 466.536 1709.31 469.51 1711.48 473.279C1713.65 476.989 1714.74 481.171 1714.74 485.823C1714.74 493.42 1712.22 499.516 1707.17 504.11C1702.19 508.703 1694.62 511 1684.48 511ZM1684.83 495.982C1688.64 495.982 1691.49 495.069 1693.36 493.244C1695.24 491.418 1696.18 488.974 1696.18 485.912C1696.18 483.026 1695.24 480.67 1693.36 478.845C1691.49 476.96 1688.64 476.018 1684.83 476.018C1681.02 476.018 1678.23 476.931 1676.47 478.756C1674.71 480.582 1673.83 482.967 1673.83 485.912C1673.83 488.974 1674.71 491.418 1676.47 493.244C1678.23 495.069 1681.02 495.982 1684.83 495.982Z" fill="white"/>
</g>
<path d="M666.799 461.088C676.769 461.088 684.217 463.415 689.143 468.067C694.128 472.661 696.62 478.845 696.62 486.618C696.62 494.392 694.128 500.399 689.143 504.64C684.217 508.88 676.769 511 666.799 511C660.758 511 655.157 509.969 649.996 507.908C644.894 505.788 641.258 502.048 639.088 496.689C645.305 493.98 649.908 491.801 652.899 490.152C653.955 492.39 655.538 494.068 657.65 495.187C659.82 496.306 662.723 496.866 666.359 496.866C673.338 496.866 677.853 495.069 679.906 491.477H656.946V480.346H679.466C677.355 476.931 673.279 475.223 667.238 475.223C664.482 475.223 661.696 475.753 658.881 476.813C656.125 477.873 654.131 479.463 652.899 481.583C647.504 478.815 642.871 476.754 639 475.399C643.692 465.859 652.958 461.088 666.799 461.088Z" fill="white"/>
<path d="M889.877 478.491C881.08 478.256 874.688 478.108 870.7 478.049V510.117H852.05V478.049C848.121 478.108 841.757 478.256 832.96 478.491V461.883H889.877V478.491Z" fill="white"/>
<path d="M1055.48 511C1045.45 511 1038.06 508.703 1033.31 504.11C1028.62 499.457 1026.27 493.362 1026.27 485.823C1026.27 478.462 1028.62 472.484 1033.31 467.89C1038.06 463.297 1045.45 461 1055.48 461C1062.22 461 1067.85 462.119 1072.37 464.357C1076.94 466.536 1080.31 469.51 1082.48 473.279C1084.65 476.989 1085.74 481.171 1085.74 485.823C1085.74 493.42 1083.22 499.516 1078.17 504.11C1073.19 508.703 1065.62 511 1055.48 511ZM1055.83 495.982C1059.64 495.982 1062.49 495.069 1064.36 493.244C1066.24 491.418 1067.18 488.974 1067.18 485.912C1067.18 483.026 1066.24 480.67 1064.36 478.845C1062.49 476.96 1059.64 476.018 1055.83 476.018C1052.02 476.018 1049.23 476.931 1047.47 478.756C1045.71 480.582 1044.83 482.967 1044.83 485.912C1044.83 488.974 1045.71 491.418 1047.47 493.244C1049.23 495.069 1052.02 495.982 1055.83 495.982Z" fill="white"/>
<path d="M9 925H686V944H9V925Z" fill="white"/>
<path d="M873 925H1715V944H873V925Z" fill="white"/>
<rect x="9" width="1706" height="19" fill="white"/>
<defs>
<linearGradient id="paint0_linear_679_454" x1="9" y1="700.5" x2="1715" y2="700.5" gradientUnits="userSpaceOnUse">
<stop stop-color="#FF00E5"/>
<stop offset="1" stop-color="#0094FF"/>
</linearGradient>
<linearGradient id="paint1_linear_679_454" x1="9" y1="700.5" x2="1715" y2="700.5" gradientUnits="userSpaceOnUse">
<stop stop-color="#FF00E5"/>
<stop offset="1" stop-color="#0094FF"/>
</linearGradient>
<linearGradient id="paint2_linear_679_454" x1="9" y1="700.5" x2="1715" y2="700.5" gradientUnits="userSpaceOnUse">
<stop stop-color="#FF00E5"/>
<stop offset="1" stop-color="#0094FF"/>
</linearGradient>
<linearGradient id="paint3_linear_679_454" x1="9" y1="700.5" x2="1715" y2="700.5" gradientUnits="userSpaceOnUse">
<stop stop-color="#FF00E5"/>
<stop offset="1" stop-color="#0094FF"/>
</linearGradient>
<linearGradient id="paint4_linear_679_454" x1="9" y1="700.5" x2="1715" y2="700.5" gradientUnits="userSpaceOnUse">
<stop stop-color="#FF00E5"/>
<stop offset="1" stop-color="#0094FF"/>
</linearGradient>
</defs>
</svg>
