<svg width="17" height="25" viewBox="0 0 17 25" fill="none" xmlns="http://www.w3.org/2000/svg">
<g clip-path="url(#clip0_753_298)">
<path d="M4.11765 25C6.39059 25 8.23529 23.1333 8.23529 20.8333V16.6667H4.11765C1.84471 16.6667 0 18.5333 0 20.8333C0 23.1333 1.84471 25 4.11765 25Z" fill="#0ACF83"/>
<path d="M0 12.5C0 10.2 1.84471 8.33334 4.11765 8.33334H8.23529V16.6667H4.11765C1.84471 16.6667 0 14.8 0 12.5Z" fill="#A259FF"/>
<path d="M0 4.16667C0 1.86667 1.84471 0 4.11765 0H8.23529V8.33333H4.11765C1.84471 8.33333 0 6.46667 0 4.16667Z" fill="#F24E1E"/>
<path d="M8.23535 0H12.353C14.6259 0 16.4706 1.86667 16.4706 4.16667C16.4706 6.46667 14.6259 8.33333 12.353 8.33333H8.23535V0Z" fill="#FF7262"/>
<path d="M16.4706 12.5C16.4706 14.8 14.6259 16.6667 12.353 16.6667C10.0801 16.6667 8.23535 14.8 8.23535 12.5C8.23535 10.2 10.0801 8.33334 12.353 8.33334C14.6259 8.33334 16.4706 10.2 16.4706 12.5Z" fill="#1ABCFE"/>
</g>
<defs>
<clipPath id="clip0_753_298">
<rect width="16.4706" height="25" fill="white"/>
</clipPath>
</defs>
</svg>
