<svg width="165" height="30" viewBox="0 0 165 30" fill="none" xmlns="http://www.w3.org/2000/svg">
<path d="M40.1268 0.530037L42.1252 29.47H31.9226L31.2915 8.74558L27.2946 29.47H14.8306L10.7811 9.0106L10.2026 29.47H0L1.99845 0.530037H17.5653L20.9837 19.4523L24.034 0.530037H40.1268Z" fill="url(#paint0_linear_412_105)"/>
<path d="M74.1457 16.2191H57.0011C57.2815 17.7739 57.9652 19.0459 59.0521 20.0353C60.174 20.9894 61.7518 21.4664 63.7853 21.4664C65.2578 21.4664 66.6427 21.1837 67.9399 20.6184C69.2372 20.0177 70.2715 19.1873 71.0428 18.1272C73.3919 19.2933 76.5122 20.5477 80.404 21.8905C79.3171 24.364 77.3362 26.3428 74.4612 27.8269C71.6213 29.2756 67.9049 30 63.312 30C57.3517 30 52.934 28.6219 50.0591 25.8657C47.2192 23.0742 45.7992 19.417 45.7992 14.894C45.7992 10.477 47.2192 6.89046 50.0591 4.13428C52.899 1.37809 57.3166 0 63.312 0C66.8881 0 69.991 0.600706 72.6205 1.80212C75.2501 3.00353 77.266 4.68198 78.6685 6.83746C80.0709 8.9576 80.7721 11.3958 80.7721 14.1519C80.7721 15.0707 80.737 15.7597 80.6669 16.2191H74.1457ZM64.0482 8.00353C62.2952 8.00353 60.8577 8.33922 59.7358 9.0106C58.6138 9.68198 57.825 10.6007 57.3692 11.7668H69.7806C69.3599 10.636 68.6762 9.73498 67.7296 9.0636C66.7829 8.35689 65.5558 8.00353 64.0482 8.00353Z" fill="url(#paint1_linear_412_105)"/>
<path d="M117.565 0.530037C117.39 5.90106 117.302 10.7244 117.302 15C117.302 19.2756 117.39 24.0989 117.565 29.47H106.153V19.8233H95.8451V29.47H84.4329C84.6082 25.4417 84.6959 20.6184 84.6959 15C84.6959 9.38163 84.6082 4.5583 84.4329 0.530037H95.8451V10.1767H106.153V0.530037H117.565Z" fill="url(#paint2_linear_412_105)"/>
<path d="M150.327 0C155.376 0 159.075 1.32509 161.424 3.97526C163.808 6.62544 165 10.3004 165 15C165 19.7703 163.825 23.4629 161.476 26.0777C159.127 28.6926 155.411 30 150.327 30C146.085 30 142.789 29.0636 140.44 27.1908C138.091 25.2827 136.601 22.5795 135.97 19.0813H132.657V21.9965C132.657 23.9046 132.692 26.4488 132.762 29.629H121.77C121.84 23.5512 121.876 18.6219 121.876 14.841C121.876 11.0247 121.84 6.25442 121.77 0.530037H132.762C132.692 4.5583 132.657 7.95053 132.657 10.7067H136.022C136.654 7.31449 138.144 4.68198 140.493 2.80919C142.842 0.936396 146.12 0 150.327 0ZM150.327 21.6254C151.8 21.6254 152.974 21.0601 153.851 19.9293C154.727 18.7986 155.166 17.1555 155.166 15C155.166 12.8799 154.727 11.2544 153.851 10.1237C152.974 8.99293 151.8 8.42756 150.327 8.42756C148.82 8.42756 147.627 8.99293 146.751 10.1237C145.91 11.2544 145.489 12.8799 145.489 15C145.489 17.1555 145.927 18.7986 146.804 19.9293C147.68 21.0601 148.855 21.6254 150.327 21.6254Z" fill="url(#paint3_linear_412_105)"/>
<defs>
<linearGradient id="paint0_linear_412_105" x1="0" y1="15" x2="165" y2="15" gradientUnits="userSpaceOnUse">
<stop stop-color="#FF00E5"/>
<stop offset="1" stop-color="#0094FF"/>
</linearGradient>
<linearGradient id="paint1_linear_412_105" x1="0" y1="15" x2="165" y2="15" gradientUnits="userSpaceOnUse">
<stop stop-color="#FF00E5"/>
<stop offset="1" stop-color="#0094FF"/>
</linearGradient>
<linearGradient id="paint2_linear_412_105" x1="0" y1="15" x2="165" y2="15" gradientUnits="userSpaceOnUse">
<stop stop-color="#FF00E5"/>
<stop offset="1" stop-color="#0094FF"/>
</linearGradient>
<linearGradient id="paint3_linear_412_105" x1="0" y1="15" x2="165" y2="15" gradientUnits="userSpaceOnUse">
<stop stop-color="#FF00E5"/>
<stop offset="1" stop-color="#0094FF"/>
</linearGradient>
</defs>
</svg>
