<svg width="135" height="30" viewBox="0 0 135 30" fill="none" xmlns="http://www.w3.org/2000/svg">
<path fill-rule="evenodd" clip-rule="evenodd" d="M78.6013 0C84.0263 0 87.8237 1.02204 89.9937 2.94589C92.1034 4.92986 93.1884 7.63527 93.1281 11.0621C93.1281 13.4669 92.7062 15.5711 91.8623 17.2545C90.9581 18.9379 89.5115 20.2605 87.3415 21.2224C85.1715 22.1844 82.2179 22.6653 78.4808 22.6653H73.538C72.5736 22.6653 71.6092 23.0862 70.9461 23.7475C70.2228 24.4088 69.8611 25.3707 69.8611 26.3327C69.8611 27.2946 69.4392 28.2565 68.7762 28.9178C68.0528 29.6393 67.1487 30 66.1842 30H63.4115C62.869 30 62.3868 29.8798 61.9648 29.6994C61.4826 29.519 61.121 29.2184 60.7593 28.8577C60.3976 28.5571 60.1565 28.1363 59.9757 27.6553C59.7949 27.1743 59.7346 26.6934 59.7346 26.2124C59.8551 22.3046 59.9154 18.517 59.9154 14.9699C59.9154 12.8056 59.9154 10.5812 59.8551 8.29659C59.1658 9.38226 58.5419 10.4244 57.9441 11.4229C57.5488 12.0832 57.1649 12.7245 56.781 13.3467C54.9124 16.4729 53.2849 19.4188 51.9588 22.1242C51.7177 22.7255 51.5369 23.3868 51.5369 24.0481V25.6713C51.5369 26.8136 51.0547 27.8958 50.2711 28.7375C49.4272 29.519 48.3422 30 47.197 30H45.0873C43.942 30 42.7967 29.5792 42.0131 28.7375C41.2295 27.9559 40.7473 26.8136 40.7473 25.6713V23.3267C40.7473 22.6653 40.5665 21.9439 40.2651 21.3427C39.4212 19.5992 38.3362 17.7956 37.191 15.9319C36.3289 14.529 35.1936 12.7855 33.8366 10.7014C33.3907 10.0167 32.921 9.29529 32.4291 8.53707C32.2482 8.59719 32.0071 8.59719 31.766 8.59719L31.5853 8.59173C29.66 8.53348 27.7914 8.47695 25.9794 8.47695C25.5575 8.47695 25.1355 8.53707 24.7136 8.71743C24.2917 8.8978 23.93 9.13828 23.6286 9.43888C23.3272 9.73948 23.0861 10.1002 22.9053 10.521C22.7245 10.9419 22.6642 11.4228 22.6642 11.8437V22.9659C22.6642 23.9279 22.4834 24.8297 22.1217 25.6713C21.76 26.513 21.2175 27.2946 20.6148 27.9559C20.012 28.6172 19.2284 29.0982 18.3845 29.4589C17.5406 29.8196 16.6365 30 15.7323 30C14.8282 30 13.9843 29.6393 13.3815 29.0381C12.7787 28.4369 12.4171 27.5952 12.4171 26.6934V11.8437C12.4171 11.3627 12.3568 10.9419 12.176 10.521C11.9951 10.1002 11.754 9.73948 11.4526 9.43888C11.1513 9.13828 10.7896 8.8978 10.3677 8.71743C10.006 8.53707 9.52378 8.47695 9.10184 8.47695C8.16025 8.50725 7.20335 8.52228 6.23885 8.53743C5.28932 8.55234 4.33242 8.56737 3.37552 8.59719C2.8933 8.59719 2.47136 8.53707 2.04942 8.35671C1.68776 8.17635 1.26582 7.93587 0.964433 7.63527C0.663048 7.33467 0.42194 6.97395 0.241108 6.55311C0.120554 6.13226 0 5.6513 0 5.23046V3.36673C0 2.46493 0.361663 1.62325 0.964433 0.961924C1.62748 0.360721 2.47136 0 3.31524 0H38.1554C38.2299 0 38.3044 0.0229636 38.4074 0.0546987C38.471 0.0743123 38.5455 0.0972764 38.6376 0.12024C38.7582 0.180361 38.8184 0.300601 38.8787 0.420842C39.7226 2.04409 40.9884 4.4489 42.7365 7.51503C43.0981 8.17635 43.6406 8.71743 44.3037 9.13828C44.9667 9.55912 45.69 9.73948 46.4736 9.73948C47.197 9.73948 47.9806 9.55912 48.6436 9.13828C49.3067 8.77755 49.8492 8.17635 50.2108 7.51503L50.3916 7.21443C52.0794 4.1483 53.2849 1.86373 54.0083 0.420842C54.0685 0.300601 54.1288 0.180361 54.2494 0.12024C54.3699 0.0601202 54.4905 0 54.611 0H78.6013ZM80.7713 14.489C81.9165 14.3086 82.7002 14.008 83.1824 13.5271C83.6646 13.1062 83.8454 12.3848 83.7851 11.4228C83.7851 10.521 83.544 9.85972 83.1221 9.37876C82.7002 8.8978 81.9165 8.59719 80.7713 8.41683C79.6863 8.23647 77.9383 8.17635 75.5875 8.17635H72.0311C71.4886 8.17635 70.9461 8.41683 70.5242 8.83768C70.1625 9.1984 69.9214 9.73948 69.9214 10.3407V11.0621C69.9214 12.024 70.3434 12.986 71.0064 13.6473C71.7297 14.3687 72.6339 14.7295 73.5983 14.7295H75.6477C77.9383 14.7295 79.626 14.6693 80.7713 14.489Z" fill="#0C0C0C"/>
<path fill-rule="evenodd" clip-rule="evenodd" d="M134.418 13.6473C134.659 13.8878 134.84 14.1884 134.96 14.489C135.021 14.8497 135.021 15.2104 134.9 15.511C134.78 15.8717 134.599 16.1723 134.358 16.4128L131.525 19.1784C131.494 19.2084 131.464 19.2234 131.434 19.2385C131.404 19.2535 131.374 19.2685 131.344 19.2986L121.097 29.3988C120.614 29.8196 120.072 30 119.469 30C118.866 30 118.324 29.8196 117.842 29.4589L109.945 21.7034C109.825 21.5832 109.644 21.4629 109.463 21.4028C109.282 21.3427 109.041 21.2826 108.86 21.2826C108.619 21.2826 108.438 21.3427 108.258 21.4028C108.077 21.4629 107.896 21.5832 107.775 21.7034L100.964 28.3768C100.301 29.0381 99.3969 29.3988 98.4325 29.3988C97.4681 29.3988 96.5639 29.0381 95.9009 28.3768L95.2378 27.7154C94.5748 27.0541 94.2131 26.1523 94.2131 25.2505C94.2131 24.3487 94.5748 23.4469 95.2378 22.7856L102.049 16.1122C102.17 15.992 102.29 15.8116 102.351 15.6313C102.367 15.5668 102.383 15.511 102.398 15.4592C102.439 15.3177 102.471 15.2061 102.471 15.0301C102.471 14.7896 102.411 14.6092 102.351 14.4289C102.29 14.2485 102.17 14.0681 102.049 13.9479L93.8514 5.9519C93.55 5.6513 93.3692 5.23046 93.3692 4.80962C93.3692 4.38878 93.55 3.96794 93.8514 3.66733L95.9009 1.68337C96.2022 1.32265 96.5639 1.02204 97.0461 0.901804C97.0948 0.889656 97.143 0.877509 97.1906 0.865486C97.6142 0.758496 97.999 0.661323 98.4325 0.661323C98.9147 0.661323 99.3969 0.721443 99.8189 0.901804C100.241 1.08216 100.663 1.38277 100.964 1.68337L107.775 8.35671C107.896 8.47695 108.077 8.59719 108.258 8.65731C108.438 8.71743 108.68 8.77756 108.86 8.77756C109.102 8.77756 109.282 8.71743 109.463 8.65731C109.644 8.59719 109.825 8.47695 109.945 8.35671L117.902 0.541082C118.143 0.300601 118.444 0.180361 118.746 0.0601202C119.108 0 119.409 0 119.771 0C120.313 0.0601202 120.795 0.240481 121.157 0.601202L131.464 10.8216C131.525 10.8216 131.585 10.8818 131.585 10.8818L134.418 13.6473ZM120.614 18.7575L123.327 16.1122C123.628 15.8717 123.749 15.4509 123.749 15.0301C123.749 14.6092 123.628 14.2485 123.327 13.9479L120.554 11.2425C120.434 11.1222 120.253 11.002 120.072 10.9419C119.891 10.8818 119.71 10.8216 119.469 10.8216C119.228 10.8216 119.047 10.8818 118.866 10.9419C118.686 11.002 118.505 11.1222 118.384 11.2425L115.672 13.8878C115.431 14.1884 115.25 14.5491 115.25 14.9699C115.25 15.3908 115.37 15.7515 115.672 16.0521L118.444 18.7575C118.565 18.8778 118.746 18.998 118.927 19.0581C119.108 19.1182 119.349 19.1784 119.529 19.1784C119.771 19.1784 119.951 19.1182 120.132 19.0581C120.313 18.998 120.494 18.8778 120.614 18.7575Z" fill="#0C0C0C"/>
</svg>
